<svg enable-background="new 0 0 134 38" viewBox="0 0 134 38" xmlns="http://www.w3.org/2000/svg"><g fill="#14bf98"><path d="m5.7 15.7h-3.8l-1.9 3.3 1.9 3.3h3.8l2-3.3z"/><path d="m10.3 7.8h-3.8l-1.9 3.3 1.9 3.3h3.8l1.9-3.3z"/><path d="m14.8 0h-3.8l-1.9 3.3 1.9 3.3h3.8l1.9-3.3z"/><path d="m23.9 0h-3.9l-1.9 3.3 1.9 3.3h3.9l1.9-3.3z"/><path d="m19.1 8.6h-2.9l-1.5 2.5 1.5 2.5h2.9l1.5-2.5z"/><path d="m28.2 8.6h-3l-1.4 2.5 1.4 2.5h3l1.4-2.5z"/><path d="m18.8 25.7h-2.3l-1.1 2 1.1 2h2.3l1.1-2z"/><path d="m27.9 25.7h-2.3l-1.2 2 1.2 2h2.3l1.1-2z"/><path d="m22.9 34.7h-1.9l-1 1.6 1 1.7h1.9l1-1.7z"/><path d="m32.9 0h-3.8l-1.9 3.3 1.9 3.3h3.8l2-3.3z"/><path d="m14.5 16.2h-3.2l-1.5 2.7 1.5 2.7h3.2l1.5-2.7z"/><path d="m32.6 16.2h-3.1l-1.6 2.7 1.6 2.7h3.1l1.6-2.7z"/><path d="m23.3 16.6h-2.7l-1.3 2.3 1.3 2.3h2.7l1.3-2.3z"/><path d="m37.4 7.8h-3.8l-1.9 3.3 1.9 3.3h3.8l1.9-3.3z"/><path d="m9.7 25h-3.1l-1.6 2.7 1.6 2.7h3.1l1.6-2.7z"/><path d="m12.4 34.9h-1.8l-.9 1.6.9 1.5h1.8l.9-1.5z"/><path d="m42 15.7h-3.8l-1.9 3.3 1.9 3.3h3.8l1.9-3.3z"/><path d="m37.3 25h-3.1l-1.6 2.7 1.6 2.7h3.1l1.6-2.7z"/><path d="m33.3 33.7h-2.5l-1.3 2.1 1.3 2.2h2.5l1.2-2.2z"/></g><path d="m79 34.5h-6.1v-6.1h-12.2v6.1h-6.1v-18.2c0-1.6.3-3.2 1-4.7.6-1.4 1.5-2.8 2.6-3.9s2.4-2 3.9-2.6c3-1.3 6.5-1.3 9.5 0 2.9 1.2 5.3 3.6 6.5 6.5.6 1.5 1 3.1 1 4.7zm-6.1-12.1v-6.1c0-.8-.2-1.6-.5-2.4-.6-1.5-1.8-2.6-3.3-3.2s-3.2-.6-4.7 0-2.6 1.8-3.3 3.2c-.3.7-.5 1.6-.5 2.4v6.1z" fill="#fff"/><path d="m89.5 34.5h-5.8v-22.7h1.4l1.9 2.7c1.9-1.7 4.3-2.7 6.9-2.7h5.1v5.8h-5.1c-.6 0-1.2.1-1.7.3-1.6.7-2.7 2.3-2.7 4.1z" fill="#fff"/><path d="m108.6 5.6c0 .5-.1 1-.3 1.5s-.5.9-.8 1.2c-.4.4-.8.6-1.2.8-1 .4-2.1.4-3 0s-1.7-1.1-2.1-2c-.4-1-.4-2 0-3 .4-.9 1.1-1.7 2.1-2.1s2.1-.4 3 0c.5.2.9.5 1.2.8.4.4.6.8.8 1.2.1.6.3 1.1.3 1.6zm-1 28.9h-5.8v-22.7h5.8z" fill="#fff"/><path d="m134 34.5h-1.4l-2.3-3.1c-.6.5-1.1 1-1.8 1.4-.6.4-1.3.8-1.9 1.1-.7.3-1.4.6-2.1.8s-1.4.3-2.2.3c-1.5 0-3.1-.3-4.5-.8s-2.6-1.3-3.7-2.3c-1.1-1.1-1.9-2.4-2.5-3.8-.6-1.6-.9-3.3-.9-5.1 0-1.7.3-3.3.9-4.9.6-1.4 1.4-2.7 2.5-3.8s2.3-1.9 3.7-2.5 3-.9 4.5-.9c.7 0 1.5.1 2.2.3s1.4.4 2.1.8c.7.3 1.3.7 1.9 1.1s1.2.9 1.7 1.4l2.3-2.7h1.4v22.7zm-5.8-11.5c0-.8-.2-1.6-.5-2.3s-.7-1.4-1.2-2-1.1-1-1.8-1.4c-.7-.3-1.5-.5-2.2-.5-.8 0-1.5.1-2.2.4s-1.3.7-1.8 1.2c-.5.6-1 1.2-1.2 1.9-.3.8-.5 1.7-.4 2.6 0 .9.1 1.8.4 2.6.3.7.7 1.4 1.2 1.9s1.1.9 1.8 1.2 1.5.4 2.2.4c.8 0 1.5-.2 2.2-.5s1.3-.8 1.8-1.4.9-1.2 1.2-2c.3-.6.5-1.3.5-2.1z" fill="#fff"/></svg>